HIERARCHY
ROOT Hips
{
	OFFSET 0.000000 0.000000 0.000000 
	CHANNELS 6 Xposition Yposition Zposition Yrotation Zrotation Xrotation 
	JOINT Lumbar
	{
		OFFSET 0.000000 0.000000 0.000000 
		CHANNELS 3 Zrotation Xrotation Yrotation
		JOINT Neck
		{
			OFFSET 0.000000 0.445665 0.000000 
			CHANNELS 3 Zrotation Xrotation Yrotation
			End Site
			{
				OFFSET 0.000000 0.227535 0.000000 
			}
		}
		JOINT RightShoulder
		{
			OFFSET 0.019635 0.377685 0.194865 
			CHANNELS 3 Zrotation Xrotation Yrotation
			JOINT RightElbow
			{
				OFFSET 0.000000 -0.243375 0.000000 
				CHANNELS 2 Zrotation Yrotation
				JOINT RightWrist
				{
					OFFSET 0.000000 -0.264825 0.000000 
					CHANNELS 2 Zrotation Xrotation
					End Site
					{
						OFFSET 0.006600 -0.176220 0.000990 
					}
				}
			}
		}
		JOINT LeftShoulder
		{
			OFFSET 0.019635 0.377685 -0.194865 
			CHANNELS 3 Zrotation Xrotation Yrotation
			JOINT LeftElbow
			{
				OFFSET 0.000000 -0.243375 0.000000 
				CHANNELS 2 Zrotation Yrotation
				JOINT LeftWrist
				{
					OFFSET 0.000000 -0.264825 0.000000 
					CHANNELS 2 Zrotation Xrotation
					End Site
					{
						OFFSET 0.006600 -0.176220 -0.000990 
					}
				}
			}
		}
	}
	JOINT RightHip
	{
		OFFSET 0.052140 -0.069960 0.075570 
		CHANNELS 3 Zrotation Xrotation Yrotation
		JOINT RightKnee
		{
			OFFSET 0.000000 -0.402270 0.000000 
			CHANNELS 1 Zrotation
			JOINT RightAnkle
			{
				OFFSET 0.000000 -0.404085 0.000000 
				CHANNELS 3 Zrotation Xrotation Yrotation
				End Site
				{
					OFFSET 0.204105 -0.089430 0.008415 
				}
			}
		}
	}
	JOINT LeftHip
	{
		OFFSET 0.052140 -0.069960 -0.075570 
		CHANNELS 3 Zrotation Xrotation Yrotation
		JOINT LeftKnee
		{
			OFFSET 0.000000 -0.402270 0.000000 
			CHANNELS 1 Zrotation
			JOINT LeftAnkle
			{
				OFFSET 0.000000 -0.404085 0.000000 
				CHANNELS 3 Zrotation Xrotation Yrotation
				End Site
				{
					OFFSET 0.204105 -0.089430 -0.008415 
				}
			}
		}
	}
}
MOTION
Frames: 30
Frame Time: 0.02
0.0011 0.00021 0.00184 16.7518 -37.23395 -3.82317 61.15279 -0.50222 0.82434 -17.81726 -0.38779 -1.67939 62.24627 -100.67313 -87.12732 5.78737 76.99651 -8.35386 5.55533 44.7069 107.02819 87.12929 5.78747 -49.11671 -17.57587 -5.32508 51.68742 -2.25744 -2.64549 -18.98005 -8.19245 -4.15672 -4.35686 55.4334 6.63517 2.52194 -24.41599 -8.99324 4.23981 4.42894
0.00106 0.00033 0.0015 16.68981 -37.30531 -3.78813 61.22302 -0.48172 0.89198 -18.14071 -0.34695 -1.70069 62.56329 -101.645 -87.12917 5.78733 76.11302 -8.80701 4.98871 46.38053 107.74117 87.13095 5.78742 -50.72611 -17.95209 -4.81724 51.74426 -2.40154 -3.27191 -18.95812 -8.1414 -4.10742 -4.32721 55.46632 6.74711 3.24859 -24.41009 -8.9309 4.19822 4.40435
0.00103 0.00046 0.00117 16.62804 -37.37648 -3.75311 61.29307 -0.46125 0.95938 -18.46328 -0.30632 -1.72192 62.87879 -102.61393 -87.13101 5.78728 75.23222 -9.25893 4.42381 48.05038 108.45173 87.13261 5.78737 -52.33177 -18.32715 -4.31072 51.80097 -2.54535 -3.89662 -18.93625 -8.09048 -4.05824 -4.29763 55.49917 6.85867 3.9734 -24.40422 -8.86872 4.15673 4.37981
0.00099 0.00059 0.00083 16.56625 -37.44763 -3.71817 61.36308 -0.44081 1.02681 -18.78575 -0.26562 -1.74315 63.19474 -103.58286 -87.13286 5.78724 74.35148 -9.71072 3.85893 49.71911 109.16251 87.13427 5.78732 -53.93645 -18.70222 -3.80439 51.85764 -2.68903 -4.52114 -18.91438 -8.03959 -4.00908 -4.26807 55.532 6.97026 4.69788 -24.39834 -8.80656 4.11527 4.35529
0.00095 0.00072 0.00049 16.50424 -37.51896 -3.68326 61.43327 -0.42034 1.09449 -19.10906 -0.2247 -1.76444 63.51241 -104.5546 -87.13471 5.7872 73.46796 -10.16367 3.2923 51.39099 109.87569 87.13594 5.78727 -55.54429 -19.07842 -3.29687 51.91443 -2.83296 -5.14729 -18.89244 -7.98857 -3.95981 -4.23843 55.56489 7.08223 5.42404 -24.39243 -8.74428 4.07373 4.33073
0.00091 0.00084 0.00016 16.44295 -37.58977 -3.64801 61.50302 -0.39987 1.16131 -19.43005 -0.18467 -1.78554 63.82335 -105.51751 -87.13654 5.78715 72.59288 -10.61337 2.73105 53.05644 110.58063 87.13758 5.78722 -57.14517 -19.45103 -2.79251 51.97098 -2.97649 -5.76894 -18.87073 -7.93786 -3.91084 -4.20898 55.59763 7.19295 6.14594 -24.38666 -8.68231 4.03236 4.30627
0.00087 0.00097 -0.00018 16.38029 -37.66156 -3.61347 61.57356 -0.37943 1.22976 -19.75535 -0.14289 -1.80701 64.14745 -106.49736 -87.13841 5.78711 71.70208 -11.06914 2.15973 54.73316 111.30162 87.13926 5.78717 -58.75858 -19.83054 -2.28228 52.02794 -3.12067 -6.39892 -18.84858 -7.88659 -3.86132 -4.17919 55.63065 7.30605 6.87564 -24.38061 -8.61977 3.99067 4.28161
0.00084 0.0011 -0.00051 16.31886 -37.73242 -3.57828 61.6434 -0.35897 1.29675 -20.07667 -0.10272 -1.82814 64.45948 -107.46118 -87.14024 5.78707 70.82522 -11.51925 1.59746 56.39918 112.00737 87.14091 5.78712 -60.35993 -20.20353 -1.77758 52.08451 -3.26424 -7.0213 -18.82684 -7.83584 -3.8123 -4.14971 55.66339 7.41697 7.59813 -24.37481 -8.55776 3.94929 4.25714
0.00079 0.00122 -0.00085 16.25907 -37.80232 -3.54224 61.71232 -0.33845 1.36182 -20.39331 -0.06455 -1.84886 64.75652 -108.40742 -87.14202 5.78703 69.96724 -11.96292 1.04695 58.0543 112.69647 87.14253 5.78707 -61.9494 -20.56934 -1.27894 52.14071 -3.40718 -7.63435 -18.80557 -7.78571 -3.76388 -4.12062 55.69591 7.5252 8.31225 -24.36933 -8.49635 3.90823 4.23289
0.00078 0.00137 -0.00119 16.19026 -37.87824 -3.51092 61.78636 -0.31817 1.43754 -20.73745 -0.01496 -1.87195 65.13909 -109.4609 -87.1441 5.78698 69.00615 -12.44511 0.43084 59.77876 113.48733 87.14434 5.78701 -63.61589 -20.97885 -0.74328 52.19937 -3.55411 -8.30097 -18.7815 -7.73197 -3.71199 -4.08928 55.73007 7.64882 9.07587 -24.36206 -8.43135 3.86517 4.20735
0.0007 0.00147 -0.00152 16.14023 -37.94113 -3.46979 61.84967 -0.29744 1.49102 -21.02317 0.01061 -1.89004 65.34172 -110.28415 -87.14554 5.78695 68.25915 -12.84503 -0.04815 61.35239 114.05966 87.14574 5.78697 -65.1141 -21.2946 -0.28718 52.2526 -3.69237 -8.8546 -18.76339 -7.68585 -3.66744 -4.06271 55.76051 7.74003 9.73412 -24.35856 -8.37403 3.82642 4.18456
0.00043 0.00145 -0.00186 16.14437 -37.97048 -3.4001 61.88257 -0.27519 1.48109 -21.15042 -0.031 -1.89435 65.04173 -110.50178 -87.1451 5.78699 68.13499 -13.02539 -0.13656 62.54571 114.05781 87.14603 5.78697 -66.19438 -21.3635 -0.03937 52.29256 -3.80851 -9.09491 -18.76138 -7.66069 -3.64293 -4.04927 55.78279 7.74104 10.10812 -24.36541 -8.33712 3.79891 4.16896
9e-05 0.00138 -0.00219 16.16692 -37.98621 -3.32087 61.9048 -0.25257 1.44926 -21.21876 -0.09646 -1.89368 64.56297 -110.48316 -87.14402 5.78706 68.22024 -13.12194 -0.08975 63.58097 113.83167 87.14591 5.78697 -67.09757 -21.33631 0.12667 52.32666 -3.91557 -9.22221 -18.76541 -7.64316 -3.6258 -4.04061 55.80086 7.70974 10.3753 -24.37606 -8.30808 3.77585 4.15619
-0.00021 0.00133 -0.00251 16.17931 -38.00685 -3.24702 61.93266 -0.23027 1.42903 -21.31276 -0.15023 -1.89534 64.17144 -110.55583 -87.14329 5.78711 68.1853 -13.25291 -0.11438 64.66718 113.6917 87.14597 5.78698 -68.0532 -21.34634 0.3236 52.36249 -4.0258 -9.40363 -18.76684 -7.6221 -3.60534 -4.0297 55.81963 7.69404 10.68833 -24.38498 -8.27587 3.75112 4.14236
-0.00053 0.00129 -0.00286 16.19924 -38.03334 -3.16865 61.95755 -0.20722 1.40189 -21.41096 -0.20779 -1.89667 63.7531 -110.69672 -87.14231 5.78718 68.25235 -13.39947 -0.09731 65.84289 113.61837 87.14606 5.78698 -69.12691 -21.3835 0.5469 52.40265 -4.14033 -9.57393 -18.76762 -7.60131 -3.5848 -4.01909 55.84389 7.67438 11.01303 -24.39388 -8.24189 3.72486 4.12757
-0.00083 0.00122 -0.00316 16.20792 -38.04384 -3.09757 61.98567 -0.18577 1.38384 -21.48689 -0.26294 -1.89755 63.34969 -110.63847 -87.1417 5.78722 68.16172 -13.49333 -0.13411 66.79262 113.35235 87.14598 5.78699 -69.91261 -21.34128 0.69583 52.43188 -4.24341 -9.73966 -18.77125 -7.58178 -3.56618 -4.00903 55.85523 7.65533 11.28748 -24.40374 -8.21355 3.7029 4.11548
-0.00108 0.0011 -0.00329 16.18028 -38.01838 -3.04777 62.02882 -0.16794 1.39709 -21.5123 -0.30686 -1.8981 63.01964 -110.098 -87.14233 5.78718 67.53904 -13.46553 -0.36103 67.17556 112.61613 87.1455 5.78704 -69.94745 -21.10466 0.66027 52.43672 -4.31998 -9.92943 -18.78074 -7.56364 -3.55094 -3.99903 55.83611 7.6457 11.45492 -24.41526 -8.19814 3.6911 4.10984
-0.00132 0.00095 -0.00336 16.14091 -37.97641 -3.00587 62.07492 -0.15192 1.42002 -21.51802 -0.3473 -1.89844 62.71303 -109.3636 -87.14334 5.78712 66.75839 -13.38696 -0.64509 67.33328 111.6926 87.14488 5.78711 -69.69849 -20.79139 0.55262 52.42992 -4.38487 -10.11729 -18.79298 -7.54652 -3.53738 -3.98947 55.80339 7.63782 11.57435 -24.42763 -8.18828 3.68357 4.10686
-0.00157 0.00082 -0.00345 16.10733 -37.9388 -2.9611 62.11741 -0.13563 1.4381 -21.53499 -0.38851 -1.8991 62.40336 -108.71152 -87.14414 5.78707 66.08034 -13.32946 -0.89793 67.5818 110.85016 87.14436 5.78716 -69.57864 -20.51227 0.47735 52.42558 -4.45311 -10.29956 -18.80431 -7.5291 -3.52318 -3.97994 55.77412 7.62931 11.7123 -24.43967 -8.17635 3.67449 4.10285
-0.0018 0.00068 -0.00357 16.07218 -37.91393 -2.9129 62.16919 -0.11694 1.45764 -21.54007 -0.43395 -1.89865 62.05535 -108.07543 -87.14507 5.78701 65.28137 -13.27755 -1.1692 67.87294 110.01647 87.14367 5.78723 -69.45159 -20.23224 0.40052 52.43301 -4.52899 -10.5033 -18.81445 -7.51131 -3.50885 -3.96968 55.75606 7.61906 11.86096 -24.45161 -8.16276 3.66395 4.09819
-0.00207 0.00053 -0.00362 16.03761 -37.85886 -2.8739 62.20237 -0.10374 1.47633 -21.56615 -0.46946 -1.90052 61.79514 -107.36343 -87.14584 5.78696 64.69169 -13.20295 -1.41616 68.02466 109.12356 87.14329 5.78727 -69.27499 -19.93773 0.31126 52.4132 -4.5867 -10.66569 -18.82762 -7.49435 -3.49494 -3.96088 55.71166 7.61314 11.97668 -24.46389 -8.15386 3.65738 4.09548
-0.00241 0.00036 -0.00349 16.0044 -37.72385 -2.8578 62.18407 -0.10464 1.49381 -21.65402 -0.47819 -1.90878 61.77201 -106.48736 -87.1461 5.78694 64.73833 -13.07957 -1.59335 67.84086 108.10957 87.1438 5.78721 -69.02605 -19.61766 0.2031 52.32169 -4.59373 -10.69403 -18.84866 -7.48021 -3.48304 -3.95677 55.59638 7.61998 12.01919 -24.47694 -8.15656 3.66083 4.09758
-0.00278 0.00017 -0.00329 15.97267 -37.55926 -2.85081 62.14683 -0.11109 1.50958 -21.76402 -0.47699 -1.9194 61.83714 -105.54338 -87.14619 5.78693 64.99668 -12.93544 -1.74258 67.52675 107.04458 87.1446 5.78712 -68.738 -19.28712 0.08614 52.20316 -4.5835 -10.6847 -18.8726 -7.46672 -3.47126 -3.95397 55.4554 7.63104 12.02974 -24.49025 -8.16376 3.66807 4.10153
-0.00314 -1e-05 -0.00312 15.94224 -37.40859 -2.84007 62.11799 -0.11542 1.5239 -21.8651 -0.48031 -1.92899 61.86269 -104.63257 -87.14636 5.78692 65.14361 -12.80009 -1.89795 67.27632 106.00581 87.14525 5.78705 -68.47308 -18.9645 -0.02544 52.09649 -4.5835 -10.70719 -18.89508 -7.45232 -3.45849 -3.95003 55.32708 7.63952 12.05138 -24.50337 -8.16884 3.67347 4.10459
-0.0035 -0.00019 -0.00295 15.90311 -37.2551 -2.82802 62.09037 -0.1182 1.54784 -21.96142 -0.48338 -1.9384 61.8872 -103.70399 -87.14654 5.78691 65.34779 -12.66499 -2.08326 66.99756 104.94596 87.146 5.78697 -68.17904 -18.62511 -0.14707 51.99084 -4.57326 -10.66956 -18.9183 -7.44043 -3.44957 -3.94832 55.19392 7.65083 12.08532 -24.51684 -8.17441 3.67955 4.10796
-0.00387 -0.00037 -0.00277 15.88256 -37.10098 -2.82067 62.05535 -0.12538 1.55134 -22.07223 -0.48481 -1.94873 61.9339 -102.80026 -87.14667 5.78689 65.487 -12.52593 -2.19844 66.75174 103.92234 87.14659 5.7869 -67.93568 -18.32001 -0.24684 51.87723 -4.58008 -10.74562 -18.94058 -7.42364 -3.43286 -3.94237 55.06522 7.65725 12.08726 -24.52963 -8.17997 3.68505 4.11109
-0.00428 -0.00053 -0.00258 15.91328 -36.94993 -2.8247 62.00746 -0.14451 1.49784 -22.22571 -0.4825 -1.96134 62.02692 -101.9711 -87.14669 5.78689 65.37881 -12.37409 -2.13045 66.61403 102.99598 87.1467 5.78689 -67.88279 -18.10532 -0.30159 51.7449 -4.64115 -11.16731 -18.95994 -7.39149 -3.39253 -3.92338 54.9528 7.64886 12.00393 -24.54056 -8.18442 3.68816 4.11316
-0.00471 -0.00069 -0.00239 15.9626 -36.7999 -2.83297 61.9523 -0.16765 1.42403 -22.39149 -0.47916 -1.97475 62.1384 -101.17244 -87.14665 5.78689 65.20192 -12.22031 -1.99214 66.51805 102.11187 87.14661 5.78689 -67.87722 -17.92701 -0.33059 51.60627 -4.71948 -11.70035 -18.97816 -7.35471 -3.34475 -3.90026 54.84637 7.63542 11.89057 -24.55076 -8.18868 3.69052 4.1149
-0.00513 -0.00085 -0.0022 16.00325 -36.65099 -2.83883 61.89847 -0.18824 1.36006 -22.54657 -0.47742 -1.98762 62.23633 -100.36761 -87.14666 5.78689 65.06766 -12.07256 -1.88306 66.41359 101.21916 87.1466 5.78689 -67.82304 -17.7371 -0.35925 51.47263 -4.78812 -12.16794 -18.99664 -7.32114 -3.30171 -3.87967 54.73871 7.62449 11.7944 -24.56122 -8.19302 3.69312 4.11671
-0.00554 -0.00101 -0.00201 16.04499 -36.494 -2.84705 61.85205 -0.21216 1.29322 -22.72444 -0.47066 -2.00135 62.35704 -99.52713 -87.14663 5.78689 64.89177 -11.90334 -1.78357 66.25949 100.27901 87.14669 5.78689 -67.87687 -17.52658 -0.43826 51.32863 -4.8641 -12.69766 -19.01635 -7.28289 -3.2529 -3.85635 54.62348 7.61288 11.68242 -24.572 -8.19756 3.69626 4.11891
